<svg width="312" height="310" viewBox="0 0 312 310" fill="none" xmlns="http://www.w3.org/2000/svg">
<path fill-rule="evenodd" clip-rule="evenodd" d="M106.8 69.3V35.1H140.8H174.9C186.7 35.1 198.1 36.6 209 39.4C221 42.5 232.5 47.3 243 53.5C255.9 61.1 267.4 70.6 277.1 81.7C298.3 105.8 311.1 137.5 311.1 172.1C311.1 206.7 298.2 238.4 277.1 262.6C267.3 273.7 255.8 283.3 243 290.7C232.5 296.9 221 301.7 209 304.8C198.1 307.6 186.7 309.2 174.9 309.2H140.8H106.8H72.6998H38.5999V103.7H72.6998V275.1H106.8H140.8H174.9C186.8 275.1 198.3 273 209 269.2C221.7 264.6 233.2 257.6 243 248.7C263.9 229.8 277.1 202.5 277.1 172.2C277.1 142 263.8 114.6 243 95.7C233.2 86.9 221.6 79.8 209 75.3C198.3 71.5 186.8 69.3 174.9 69.3H140.8V93.5V103.6V137.8V168.5V206.5H174.9C193.4 206.5 209 190.8 209 172.2C209 153.6 193.4 137.9 174.9 137.9V103.7C187.3 103.7 198.9 107.1 209 113C229.3 125 243 147.1 243 172.2C243 197.3 229.3 219.6 209 231.4C198.9 237.4 187.3 240.7 174.9 240.7H140.8H106.8V103.7V69.3ZM42.0999 0.799988H23.4999V19.4H42.0999V0.799988ZM23.3999 32.4H0.399902V55.4H23.3999V32.4ZM38.4999 69.3V35.1H72.5999V69.3H38.4999Z" fill="white"/>
</svg>
