<svg width="353" height="353" viewBox="0 0 353 353" fill="none" xmlns="http://www.w3.org/2000/svg">
<path fill-rule="evenodd" clip-rule="evenodd" d="M252.4 6C259.3 6 265 11.7 265 18.7C265 25.7 259.3 31.3 252.4 31.3C245.5 31.3 239.8 25.7 239.8 18.7C239.9 11.7 245.5 6 252.4 6ZM177.3 170.2C181.7 170.2 185.9 171 189.8 172.4L190 172.5L190.4 172.6L190.9 172.8L191.2 172.9L191.9 173.2L192 173.3H192.1L192.7 173.6L193 173.7L193.5 174L193.8 174.1C194.3 174.3 194.8 174.6 195.3 174.9L195.5 175L196 175.3L196.3 175.4L196.8 175.7L197.1 175.9L197.7 176.3H197.8L198.4 176.8L198.7 176.9L199.2 177.3L199.4 177.4L199.9 177.8L200.1 177.9L200.2 178L200.7 178.4L200.8 178.5L200.9 178.6L201.4 179L201.7 179.2L202 179.5L202.3 179.7L202.9 180.2V180.3L203.6 180.9L203.7 181L204.2 181.5L204.3 181.6L204.8 182.1L204.9 182.2C205.1 182.4 205.3 182.6 205.5 182.9L206.1 183.5L206.3 183.7L206.7 184.2L206.8 184.4L207.2 184.8L207.4 185.1L207.9 185.7L208.4 186.4L208.5 186.6L208.9 187.1L209 187.3L209.4 188H209.5L209.9 188.7L210 188.8V188.9L210.4 189.5L210.5 189.7L210.8 190.3L210.9 190.5C211.2 191 211.5 191.5 211.7 192L211.8 192.2L212.1 192.8L212.2 193.1L212.4 193.6L212.5 193.9L212.8 194.5L212.9 194.7L213.2 195.5V195.7L213.5 196.3L213.6 196.6L213.7 197.2L213.8 197.4L214.1 198.2L214.3 199L214.4 199.4L214.5 200L214.6 200.2L214.7 201H214.8C214.8 201.4 214.9 201.7 214.9 202L215.1 202.8V203.1L215.2 203.7V204L215.3 204.8V204.9L215.4 205.8V206L215.5 206.7V206.9V207.6V207.9C215.5 208.2 215.5 208.5 215.5 208.8C215.5 209.1 215.5 209.4 215.5 209.7V210.1V210.5C214.7 229.8 199.5 245.3 180.4 246.6H180.2H180.1H179.7H179.5L178.9 246.7H178.8C178.5 246.7 178.2 246.7 177.9 246.7C177.5 246.7 177.2 246.7 176.9 246.7H176.8L176.2 246.6H176H175.6H175.4C156.3 245.3 141.1 229.8 140.2 210.5V209.3V208.9C140.2 208.6 140.2 208.3 140.2 208C140.2 207.7 140.2 207.4 140.2 207.1V206.7V206.3C140.5 186.3 157 170.2 177.3 170.2ZM265 62.9V81.7V208C265 231.8 255.3 253.6 239.8 269.6C232.7 277 224.2 283.1 214.7 287.6C206.9 291.4 198.5 294.1 189.6 295.3C185.5 295.9 181.3 296.2 177.1 296.2C172.8 296.2 168.6 295.9 164.5 295.3C155.6 294 147.2 291.4 139.4 287.6C130 283.1 121.6 276.9 114.3 269.6C98.8 253.6 89.2 231.8 89.2 208C89.2 184.2 98.8 162.4 114.3 146.4C114.8 145.9 115.3 145.4 115.8 144.9C122.7 138.1 130.6 132.5 139.4 128.3C147.2 124.5 155.6 121.8 164.5 120.6C168.6 120 172.8 119.7 177.1 119.7C184 119.7 189.6 114 189.6 107C189.6 100 184 94.4 177.1 94.4C172.8 94.4 168.6 94.6 164.5 95.1C155.8 96.1 147.4 98 139.4 101C130.4 104.1 122 108.5 114.3 113.7C111.6 115.7 108.8 117.6 106.3 119.7C100 124.8 94.3 130.6 89.2 136.9C87.1 139.5 85.1 142.2 83.3 144.9C71.2 162.9 64.1 184.7 64.1 208C64.1 234.9 73.6 259.6 89.3 279.1C96.4 288 104.9 295.8 114.4 302.2C122.1 307.4 130.5 311.7 139.5 314.9C147.5 317.7 155.9 319.7 164.6 320.7C168.7 321.2 172.9 321.4 177.2 321.4C181.4 321.4 185.6 321.2 189.7 320.7C198.4 319.7 206.8 317.8 214.8 314.9C223.8 311.7 232.2 307.3 239.9 302.2C249.5 295.7 257.8 288 265.1 279.1C280.7 259.6 290.2 234.9 290.2 208V106.4C290.2 99.4 295.9 93.7 302.7 93.7C309.6 93.7 315.3 99.4 315.3 106.4V208C315.3 237.5 306 265 290.2 287.5C283.1 297.6 274.6 306.8 265.1 314.8C257.4 321.2 248.9 326.8 239.9 331.5C232 335.6 223.6 339 214.8 341.5C206.7 343.8 198.3 345.3 189.7 346.1C185.6 346.5 181.4 346.7 177.2 346.7C172.9 346.7 168.7 346.5 164.6 346.1C156 345.3 147.6 343.7 139.5 341.5C130.7 339 122.3 335.6 114.4 331.5C105.4 326.8 97 321.2 89.3 314.8C79.7 306.9 71.4 297.6 64.1 287.5C48.4 264.9 39 237.5 39 208C39 185.3 44.6 163.9 54.2 144.9C57.1 139.2 60.4 133.7 64 128.4C66.1 125.5 68.4 122.5 70.7 119.7C76.3 112.9 82.4 106.8 89.1 101.2C96.8 94.8 105.2 89.2 114.2 84.5C122.1 80.4 130.5 77 139.3 74.6C147.4 72.2 155.8 70.7 164.4 69.9C168.5 69.5 172.7 69.3 177 69.3H189.5H202.1C209 69.3 214.6 74.9 214.6 81.9V94.6V132.5C214.6 139.5 209 145.1 202.1 145.1H177C162.1 145.1 152.8 147.6 139.4 157.9C124.2 169.4 114.3 187.7 114.3 208.1C114.3 228.5 124.1 246.8 139.4 258.4C146.7 263.9 155.2 267.9 164.5 269.9C168.6 270.7 172.8 271.2 177.1 271.2C181.4 271.2 185.6 270.7 189.6 269.9C198.9 267.9 207.3 263.9 214.7 258.4C229.9 246.8 239.8 228.5 239.8 208.1V119.5V81.7V62.9C239.8 55.9 245.5 50.3 252.4 50.3C259.3 50.3 265 55.9 265 62.9ZM290.1 69.3V69.1C290.1 62.1 295.8 56.5 302.6 56.5C309.5 56.5 315.2 62.1 315.2 69.1V69.3C315.2 76.3 309.5 82 302.6 82C295.7 81.9 290.1 76.2 290.1 69.3Z" fill="white"/>
</svg>
