<svg width="276" height="252" viewBox="0 0 276 252" fill="none" xmlns="http://www.w3.org/2000/svg">
<path fill-rule="evenodd" clip-rule="evenodd" d="M249.6 126C249.6 98.6 238.6 73.7001 220.7 55.8C202.8 37.8 178.1 26.7 150.8 26.7H52V92.1V113H78H127.1H163.8V224.6C185.8 221.7 205.6 211.5 220.6 196.4C238.6 178.4 249.6 153.5 249.6 126ZM78.1 151.8H52.1H26H0V178H26V201.7V251.6H125.3V190.7H99.3V225.4H52.2V201.7V178H78.2H99.3H118.2H125.3V151.8H118.2H78.1ZM52.1 139.1H26H0V113H26V92.1V0.5H150.9C185.4 0.5 216.6 14.5 239.2 37.3C261.7 60.1 275.8 91.4 275.8 126.1C275.8 160.8 261.8 192.2 239.2 215C216.6 237.8 185.4 251.8 150.9 251.8H137.8V139.3H127.3H78.2H52.1V139.1Z" fill="white"/>
</svg>
